<mxfile host="Electron" modified="2024-01-01T21:59:46.142Z" agent="Mozilla/5.0 (Macintosh; Intel Mac OS X 10_15_7) AppleWebKit/537.36 (KHTML, like Gecko) draw.io/22.1.2 Chrome/114.0.5735.289 Electron/25.9.4 Safari/537.36" etag="kK-dClCYdKa12QSe_smC" version="22.1.2" type="device">
  <diagram id="C5RBs43oDa-KdzZeNtuy" name="Page-1">
    <mxGraphModel dx="1195" dy="663" grid="1" gridSize="10" guides="1" tooltips="1" connect="1" arrows="1" fold="1" page="1" pageScale="1" pageWidth="827" pageHeight="1169" math="0" shadow="0">
      <root>
        <mxCell id="WIyWlLk6GJQsqaUBKTNV-0" />
        <mxCell id="WIyWlLk6GJQsqaUBKTNV-1" parent="WIyWlLk6GJQsqaUBKTNV-0" />
        <mxCell id="aAmZ4SvgGba1ybjgt6KM-31" value="" style="rounded=0;whiteSpace=wrap;html=1;fillColor=#eeeeee;strokeColor=#36393d;" vertex="1" parent="WIyWlLk6GJQsqaUBKTNV-1">
          <mxGeometry x="80" y="425" width="290" height="235" as="geometry" />
        </mxCell>
        <mxCell id="aAmZ4SvgGba1ybjgt6KM-6" style="edgeStyle=orthogonalEdgeStyle;rounded=0;orthogonalLoop=1;jettySize=auto;html=1;exitX=0.5;exitY=1;exitDx=0;exitDy=0;entryX=0.5;entryY=0;entryDx=0;entryDy=0;" edge="1" parent="WIyWlLk6GJQsqaUBKTNV-1" source="aAmZ4SvgGba1ybjgt6KM-2" target="aAmZ4SvgGba1ybjgt6KM-4">
          <mxGeometry relative="1" as="geometry">
            <Array as="points">
              <mxPoint x="180" y="170" />
            </Array>
          </mxGeometry>
        </mxCell>
        <mxCell id="aAmZ4SvgGba1ybjgt6KM-2" value="MENU" style="rounded=1;whiteSpace=wrap;html=1;fillColor=#a20025;fontColor=#ffffff;strokeColor=#6F0000;" vertex="1" parent="WIyWlLk6GJQsqaUBKTNV-1">
          <mxGeometry x="120" y="30" width="120" height="60" as="geometry" />
        </mxCell>
        <mxCell id="aAmZ4SvgGba1ybjgt6KM-11" style="edgeStyle=orthogonalEdgeStyle;rounded=0;orthogonalLoop=1;jettySize=auto;html=1;exitX=0.5;exitY=1;exitDx=0;exitDy=0;entryX=0;entryY=0.5;entryDx=0;entryDy=0;" edge="1" parent="WIyWlLk6GJQsqaUBKTNV-1" source="aAmZ4SvgGba1ybjgt6KM-4" target="aAmZ4SvgGba1ybjgt6KM-12">
          <mxGeometry relative="1" as="geometry">
            <mxPoint x="320" y="295" as="targetPoint" />
            <Array as="points">
              <mxPoint x="180" y="295" />
            </Array>
          </mxGeometry>
        </mxCell>
        <mxCell id="aAmZ4SvgGba1ybjgt6KM-4" value="REGISTRA ALIMENTO" style="rounded=0;whiteSpace=wrap;html=1;fillColor=#0050ef;fontColor=#ffffff;strokeColor=#001DBC;" vertex="1" parent="WIyWlLk6GJQsqaUBKTNV-1">
          <mxGeometry x="110" y="170" width="140" height="30" as="geometry" />
        </mxCell>
        <mxCell id="aAmZ4SvgGba1ybjgt6KM-16" style="edgeStyle=orthogonalEdgeStyle;rounded=0;orthogonalLoop=1;jettySize=auto;html=1;exitX=0.5;exitY=1;exitDx=0;exitDy=0;entryX=0.5;entryY=0;entryDx=0;entryDy=0;" edge="1" parent="WIyWlLk6GJQsqaUBKTNV-1" source="aAmZ4SvgGba1ybjgt6KM-12" target="aAmZ4SvgGba1ybjgt6KM-21">
          <mxGeometry relative="1" as="geometry">
            <mxPoint x="205" y="450" as="targetPoint" />
          </mxGeometry>
        </mxCell>
        <mxCell id="aAmZ4SvgGba1ybjgt6KM-17" value="&lt;font style=&quot;font-size: 16px;&quot;&gt;SI&lt;/font&gt;" style="edgeLabel;html=1;align=center;verticalAlign=middle;resizable=0;points=[];" vertex="1" connectable="0" parent="aAmZ4SvgGba1ybjgt6KM-16">
          <mxGeometry x="-0.0516" y="-1" relative="1" as="geometry">
            <mxPoint as="offset" />
          </mxGeometry>
        </mxCell>
        <mxCell id="aAmZ4SvgGba1ybjgt6KM-18" style="edgeStyle=orthogonalEdgeStyle;rounded=0;orthogonalLoop=1;jettySize=auto;html=1;exitX=0.5;exitY=1;exitDx=0;exitDy=0;entryX=1;entryY=0.5;entryDx=0;entryDy=0;" edge="1" parent="WIyWlLk6GJQsqaUBKTNV-1" target="aAmZ4SvgGba1ybjgt6KM-2">
          <mxGeometry relative="1" as="geometry">
            <mxPoint x="405" y="390" as="sourcePoint" />
            <mxPoint x="440" y="650" as="targetPoint" />
            <Array as="points">
              <mxPoint x="670" y="390" />
              <mxPoint x="670" y="60" />
            </Array>
          </mxGeometry>
        </mxCell>
        <mxCell id="aAmZ4SvgGba1ybjgt6KM-19" value="&lt;font style=&quot;font-size: 15px;&quot;&gt;NO&lt;/font&gt;" style="edgeLabel;html=1;align=center;verticalAlign=middle;resizable=0;points=[];" vertex="1" connectable="0" parent="aAmZ4SvgGba1ybjgt6KM-18">
          <mxGeometry x="-0.1858" y="3" relative="1" as="geometry">
            <mxPoint x="-147" y="152" as="offset" />
          </mxGeometry>
        </mxCell>
        <mxCell id="aAmZ4SvgGba1ybjgt6KM-12" value="&lt;p style=&quot;line-height: 120%;&quot;&gt;INSERISCI_NOME&lt;br&gt;INSERISCI_QUANTITÀ&lt;br&gt;&lt;br&gt;DEVI CALCOLARE CALORIE?&lt;/p&gt;" style="rounded=0;whiteSpace=wrap;html=1;align=left;fillColor=#54708C;" vertex="1" parent="WIyWlLk6GJQsqaUBKTNV-1">
          <mxGeometry x="320" y="250" width="170" height="90" as="geometry" />
        </mxCell>
        <mxCell id="aAmZ4SvgGba1ybjgt6KM-23" style="edgeStyle=orthogonalEdgeStyle;rounded=0;orthogonalLoop=1;jettySize=auto;html=1;exitX=0.5;exitY=1;exitDx=0;exitDy=0;strokeColor=#000000;" edge="1" parent="WIyWlLk6GJQsqaUBKTNV-1" source="aAmZ4SvgGba1ybjgt6KM-26">
          <mxGeometry relative="1" as="geometry">
            <mxPoint x="205" y="630" as="targetPoint" />
          </mxGeometry>
        </mxCell>
        <mxCell id="aAmZ4SvgGba1ybjgt6KM-21" value="&lt;p style=&quot;line-height: 120%;&quot;&gt;INSERISCI_VALORI_NUTR:&lt;br&gt;&lt;br&gt;- PROT&lt;br&gt;- CARB&lt;br&gt;- GRASSI&lt;br&gt;&lt;br&gt;USANDO SITO FATSECRET&lt;/p&gt;" style="rounded=0;whiteSpace=wrap;html=1;align=left;fillColor=#54708C;" vertex="1" parent="WIyWlLk6GJQsqaUBKTNV-1">
          <mxGeometry x="120" y="440" width="170" height="140" as="geometry" />
        </mxCell>
        <mxCell id="aAmZ4SvgGba1ybjgt6KM-29" style="edgeStyle=orthogonalEdgeStyle;rounded=0;orthogonalLoop=1;jettySize=auto;html=1;exitX=0.5;exitY=1;exitDx=0;exitDy=0;entryX=0.5;entryY=0;entryDx=0;entryDy=0;strokeColor=#FFFFFF;" edge="1" parent="WIyWlLk6GJQsqaUBKTNV-1" source="aAmZ4SvgGba1ybjgt6KM-26" target="aAmZ4SvgGba1ybjgt6KM-36">
          <mxGeometry relative="1" as="geometry">
            <mxPoint x="420" y="710" as="targetPoint" />
            <Array as="points">
              <mxPoint x="210" y="660" />
              <mxPoint x="210" y="690" />
              <mxPoint x="420" y="690" />
            </Array>
          </mxGeometry>
        </mxCell>
        <mxCell id="aAmZ4SvgGba1ybjgt6KM-27" style="edgeStyle=orthogonalEdgeStyle;rounded=0;orthogonalLoop=1;jettySize=auto;html=1;exitX=0.5;exitY=1;exitDx=0;exitDy=0;" edge="1" parent="WIyWlLk6GJQsqaUBKTNV-1" source="aAmZ4SvgGba1ybjgt6KM-26" target="aAmZ4SvgGba1ybjgt6KM-26">
          <mxGeometry relative="1" as="geometry" />
        </mxCell>
        <mxCell id="aAmZ4SvgGba1ybjgt6KM-33" value="" style="edgeStyle=orthogonalEdgeStyle;rounded=0;orthogonalLoop=1;jettySize=auto;html=1;exitX=0.5;exitY=1;exitDx=0;exitDy=0;strokeColor=#000000;" edge="1" parent="WIyWlLk6GJQsqaUBKTNV-1" source="aAmZ4SvgGba1ybjgt6KM-21" target="aAmZ4SvgGba1ybjgt6KM-26">
          <mxGeometry relative="1" as="geometry">
            <mxPoint x="205" y="630" as="targetPoint" />
            <mxPoint x="205" y="580" as="sourcePoint" />
          </mxGeometry>
        </mxCell>
        <mxCell id="aAmZ4SvgGba1ybjgt6KM-26" value="OUTPUT&lt;br&gt;CALCOLO:" style="shape=hexagon;perimeter=hexagonPerimeter2;whiteSpace=wrap;html=1;fixedSize=1;" vertex="1" parent="WIyWlLk6GJQsqaUBKTNV-1">
          <mxGeometry x="152.5" y="600" width="105" height="60" as="geometry" />
        </mxCell>
        <mxCell id="aAmZ4SvgGba1ybjgt6KM-36" value="HAI GIÀ UN PIANO?" style="rounded=0;whiteSpace=wrap;html=1;fillColor=#54708C;" vertex="1" parent="WIyWlLk6GJQsqaUBKTNV-1">
          <mxGeometry x="360" y="710" width="120" height="30" as="geometry" />
        </mxCell>
        <mxCell id="aAmZ4SvgGba1ybjgt6KM-37" style="edgeStyle=orthogonalEdgeStyle;rounded=0;orthogonalLoop=1;jettySize=auto;html=1;exitX=0.5;exitY=1;exitDx=0;exitDy=0;entryX=0.5;entryY=0;entryDx=0;entryDy=0;strokeColor=#FFFFFF;" edge="1" parent="WIyWlLk6GJQsqaUBKTNV-1" source="aAmZ4SvgGba1ybjgt6KM-36" target="aAmZ4SvgGba1ybjgt6KM-45">
          <mxGeometry relative="1" as="geometry">
            <mxPoint x="180" y="660" as="sourcePoint" />
            <mxPoint x="120" y="720" as="targetPoint" />
          </mxGeometry>
        </mxCell>
        <mxCell id="aAmZ4SvgGba1ybjgt6KM-38" value="&lt;font style=&quot;font-size: 16px;&quot;&gt;SI&lt;/font&gt;" style="edgeLabel;html=1;align=center;verticalAlign=middle;resizable=0;points=[];" vertex="1" connectable="0" parent="aAmZ4SvgGba1ybjgt6KM-37">
          <mxGeometry x="-0.0516" y="-1" relative="1" as="geometry">
            <mxPoint as="offset" />
          </mxGeometry>
        </mxCell>
        <mxCell id="aAmZ4SvgGba1ybjgt6KM-54" style="edgeStyle=orthogonalEdgeStyle;rounded=0;orthogonalLoop=1;jettySize=auto;html=1;exitX=0.5;exitY=1;exitDx=0;exitDy=0;entryX=0.5;entryY=0;entryDx=0;entryDy=0;" edge="1" parent="WIyWlLk6GJQsqaUBKTNV-1" source="aAmZ4SvgGba1ybjgt6KM-45" target="aAmZ4SvgGba1ybjgt6KM-53">
          <mxGeometry relative="1" as="geometry" />
        </mxCell>
        <mxCell id="aAmZ4SvgGba1ybjgt6KM-45" value="&lt;p style=&quot;line-height: 120%;&quot;&gt;AGGIUNGI ELEMENTO A PIANO&lt;/p&gt;" style="rounded=0;whiteSpace=wrap;html=1;align=center;fillColor=#54708C;" vertex="1" parent="WIyWlLk6GJQsqaUBKTNV-1">
          <mxGeometry x="160" y="810" width="180" height="30" as="geometry" />
        </mxCell>
        <mxCell id="aAmZ4SvgGba1ybjgt6KM-46" style="edgeStyle=orthogonalEdgeStyle;rounded=0;orthogonalLoop=1;jettySize=auto;html=1;exitX=0.5;exitY=1;exitDx=0;exitDy=0;entryX=0.5;entryY=0;entryDx=0;entryDy=0;" edge="1" parent="WIyWlLk6GJQsqaUBKTNV-1" target="aAmZ4SvgGba1ybjgt6KM-48">
          <mxGeometry relative="1" as="geometry">
            <mxPoint x="420" y="735" as="sourcePoint" />
            <mxPoint x="610" y="825" as="targetPoint" />
            <Array as="points">
              <mxPoint x="420" y="775" />
              <mxPoint x="590" y="775" />
            </Array>
          </mxGeometry>
        </mxCell>
        <mxCell id="aAmZ4SvgGba1ybjgt6KM-47" value="&lt;font style=&quot;font-size: 15px;&quot;&gt;NO&lt;/font&gt;" style="edgeLabel;html=1;align=center;verticalAlign=middle;resizable=0;points=[];" vertex="1" connectable="0" parent="aAmZ4SvgGba1ybjgt6KM-46">
          <mxGeometry x="0.0111" y="-1" relative="1" as="geometry">
            <mxPoint x="29" y="-1" as="offset" />
          </mxGeometry>
        </mxCell>
        <mxCell id="aAmZ4SvgGba1ybjgt6KM-50" style="edgeStyle=orthogonalEdgeStyle;rounded=0;orthogonalLoop=1;jettySize=auto;html=1;exitX=0.5;exitY=1;exitDx=0;exitDy=0;" edge="1" parent="WIyWlLk6GJQsqaUBKTNV-1" source="aAmZ4SvgGba1ybjgt6KM-48">
          <mxGeometry relative="1" as="geometry">
            <mxPoint x="590" y="870" as="targetPoint" />
          </mxGeometry>
        </mxCell>
        <mxCell id="aAmZ4SvgGba1ybjgt6KM-48" value="&lt;p style=&quot;line-height: 120%;&quot;&gt;CREA PIANO&lt;/p&gt;" style="rounded=0;whiteSpace=wrap;html=1;align=center;fillColor=#54708C;" vertex="1" parent="WIyWlLk6GJQsqaUBKTNV-1">
          <mxGeometry x="500" y="810" width="180" height="30" as="geometry" />
        </mxCell>
        <mxCell id="aAmZ4SvgGba1ybjgt6KM-51" value="&lt;p style=&quot;line-height: 120%;&quot;&gt;CREA FILE E INSERISCI VALORI:&lt;br&gt;&lt;br&gt;Proteine: ... \n&amp;nbsp;&lt;br&gt;...&lt;/p&gt;" style="rounded=0;whiteSpace=wrap;html=1;align=center;fillColor=#54708C;" vertex="1" parent="WIyWlLk6GJQsqaUBKTNV-1">
          <mxGeometry x="500" y="870" width="180" height="90" as="geometry" />
        </mxCell>
        <mxCell id="aAmZ4SvgGba1ybjgt6KM-52" style="edgeStyle=orthogonalEdgeStyle;rounded=0;orthogonalLoop=1;jettySize=auto;html=1;exitX=0.5;exitY=1;exitDx=0;exitDy=0;" edge="1" parent="WIyWlLk6GJQsqaUBKTNV-1" source="aAmZ4SvgGba1ybjgt6KM-51" target="aAmZ4SvgGba1ybjgt6KM-51">
          <mxGeometry relative="1" as="geometry" />
        </mxCell>
        <mxCell id="aAmZ4SvgGba1ybjgt6KM-53" value="&lt;p style=&quot;line-height: 120%;&quot;&gt;INSERISCI VALORI:&lt;br&gt;&lt;br&gt;Proteine: ... \n&amp;nbsp;&lt;br&gt;...&lt;/p&gt;" style="rounded=0;whiteSpace=wrap;html=1;align=center;fillColor=#54708C;" vertex="1" parent="WIyWlLk6GJQsqaUBKTNV-1">
          <mxGeometry x="160" y="870" width="180" height="90" as="geometry" />
        </mxCell>
      </root>
    </mxGraphModel>
  </diagram>
</mxfile>
